<svg width="18" height="18" viewBox="0 0 18 18" fill="none" xmlns="http://www.w3.org/2000/svg">
<path d="M9 12.21C8.60444 12.21 8.21776 12.3273 7.88886 12.5471C7.55996 12.7668 7.30362 13.0792 7.15224 13.4446C7.00087 13.8101 6.96126 14.2122 7.03843 14.6002C7.1156 14.9881 7.30608 15.3445 7.58579 15.6242C7.86549 15.9039 8.22186 16.0944 8.60982 16.1716C8.99778 16.2487 9.39991 16.2091 9.76537 16.0578C10.1308 15.9064 10.4432 15.65 10.6629 15.3211C10.8827 14.9922 11 14.6056 11 14.21C11 13.6796 10.7893 13.1709 10.4142 12.7958C10.0391 12.4207 9.53043 12.21 9 12.21ZM9 15.21C8.80222 15.21 8.60888 15.1514 8.44443 15.0415C8.27998 14.9316 8.15181 14.7754 8.07612 14.5927C8.00043 14.41 7.98063 14.2089 8.01921 14.0149C8.0578 13.8209 8.15304 13.6427 8.29289 13.5029C8.43275 13.363 8.61093 13.2678 8.80491 13.2292C8.99889 13.1906 9.19996 13.2104 9.38268 13.2861C9.56541 13.3618 9.72159 13.49 9.83147 13.6544C9.94135 13.8189 10 14.0122 10 14.21C10 14.4752 9.89464 14.7296 9.70711 14.9171C9.51957 15.1046 9.26522 15.21 9 15.21Z" fill="black"/>
<path d="M13.105 10.925C13.1436 10.8716 13.1713 10.811 13.1864 10.7468C13.2015 10.6827 13.2038 10.6161 13.1931 10.5511C13.1824 10.486 13.159 10.4237 13.1241 10.3677C13.0893 10.3118 13.0437 10.2633 12.99 10.225C12.2411 9.68722 11.3905 9.30782 10.49 9.11L12.425 11.045C12.532 11.1163 12.6624 11.1436 12.789 11.1212C12.9157 11.0989 13.0288 11.0286 13.105 10.925V10.925Z" fill="black"/>
<path d="M9.025 5.36C8.32622 5.36188 7.62939 5.4339 6.945 5.575L7.815 6.445C8.21611 6.39092 8.62027 6.36253 9.025 6.36C10.9149 6.36076 12.7605 6.93239 14.32 8C14.4294 8.06265 14.5583 8.0817 14.6811 8.05332C14.8039 8.02495 14.9115 7.95125 14.9823 7.84697C15.053 7.7427 15.0818 7.61553 15.0629 7.49094C15.0439 7.36634 14.9786 7.2535 14.88 7.175C13.1557 5.9941 11.1149 5.36148 9.025 5.36V5.36Z" fill="black"/>
<path d="M16.775 4.1C14.9186 2.87333 12.7974 2.10495 10.586 1.85808C8.37464 1.61121 6.13625 1.89291 4.055 2.68L4.845 3.465C6.72789 2.82297 8.73301 2.62163 10.706 2.87649C12.6789 3.13134 14.5671 3.83559 16.225 4.935C16.3357 5.00533 16.4697 5.02933 16.5979 5.00183C16.7262 4.97432 16.8385 4.89752 16.9106 4.78798C16.9828 4.67843 17.009 4.54492 16.9836 4.41623C16.9583 4.28753 16.8833 4.17396 16.775 4.1V4.1Z" fill="black"/>
<path d="M0.92 2.375L2.135 3.59C1.825 3.76 1.52 3.94 1.22 4.14C1.1655 4.17677 1.11878 4.22391 1.0825 4.27874C1.04622 4.33357 1.0211 4.395 1.00856 4.45954C0.983243 4.58988 1.01074 4.72494 1.085 4.835C1.15926 4.94506 1.2742 5.02112 1.40454 5.04644C1.53488 5.07176 1.66994 5.04426 1.78 4.97C2.13 4.735 2.5 4.5 2.87 4.325L4.805 6.26C4.21342 6.51961 3.64759 6.83433 3.115 7.2C3.03634 7.284 2.98907 7.39256 2.98115 7.50737C2.97324 7.62218 3.00517 7.7362 3.07156 7.8302C3.13794 7.9242 3.23472 7.99242 3.34557 8.02335C3.45641 8.05429 3.57453 8.04604 3.68 8C4.26839 7.59627 4.90078 7.26078 5.565 7L7.645 9.08C6.68716 9.28198 5.78466 9.68972 5 10.275C4.90227 10.3564 4.83926 10.4721 4.82381 10.5984C4.80835 10.7246 4.84162 10.8521 4.91682 10.9547C4.99203 11.0573 5.10352 11.1274 5.22859 11.1507C5.35366 11.1739 5.48291 11.1487 5.59 11.08C6.4429 10.4605 7.44945 10.0869 8.5 10L13.9 15.4L14.605 14.695L1.605 1.695L0.92 2.375Z" fill="black"/>
</svg>
