<?xml version="1.0" encoding="UTF-8"?>
<svg xmlns="http://www.w3.org/2000/svg" xmlns:xlink="http://www.w3.org/1999/xlink" viewBox="0 0 96 96" width="96px" height="96px">
<g id="surface4918637">
<path style=" stroke:none;fill-rule:nonzero;fill:rgb(80.000001%,80.000001%,80.000001%);fill-opacity:1;" d="M 12 12 L 12 32 L 3 44 L 3 45 C 3 49.9375 7.0625 54 12 54 L 12 84 L 44.515625 84 C 43.679688 82.09375 43.027344 80.089844 42.605469 78 L 18 78 L 18 51.636719 C 19.601562 53.085938 21.695312 54 24 54 C 26.332031 54 28.394531 52.976562 30 51.5 C 31.605469 52.976562 33.667969 54 36 54 C 38.332031 54 40.394531 52.976562 42 51.5 C 43.605469 52.976562 45.667969 54 48 54 L 48 48 C 46.335938 48 45 46.664062 45 45 L 39 45 C 39 46.664062 37.664062 48 36 48 C 34.335938 48 33 46.664062 33 45 L 27 45 C 27 46.664062 25.664062 48 24 48 C 22.335938 48 21 46.664062 21 45 L 15 45 C 15 46.664062 13.664062 48 12 48 C 10.589844 48 9.59375 46.949219 9.269531 45.644531 L 16.5 36 L 79.5 36 L 87 46 L 87 48 L 93 48 L 93 44 L 84 32 L 84 12 Z M 18 18 L 78 18 L 78 30 L 18 30 Z M 21 21 L 21 27 L 27 27 L 27 21 Z M 30 21 L 30 27 L 36 27 L 36 21 Z M 39 21 L 39 27 L 75 27 L 75 21 Z M 69 48 L 69 54.597656 C 66.300781 54.898438 63.601562 56.097656 61.5 57.597656 L 57 53.097656 L 52.796875 57.296875 L 57.296875 61.5 C 55.796875 63.898438 54.898438 66.300781 54.296875 69 L 48 69 L 48 75 L 54.296875 75 C 54.597656 77.699219 55.796875 80.398438 57.296875 82.5 L 52.796875 87 L 57 91.199219 L 61.5 86.699219 C 63.898438 88.199219 66.300781 89.101562 69 89.699219 L 69 96 L 75 96 L 75 89.699219 C 77.699219 89.402344 80.398438 88.199219 82.5 86.699219 L 87 91.199219 L 91.203125 87 L 86.703125 82.5 C 88.203125 80.101562 89.101562 77.699219 89.703125 75 L 96 75 L 96 69 L 89.703125 69 C 89.402344 66.300781 88.203125 63.601562 86.703125 61.5 L 91.203125 57 L 87 52.796875 L 82.5 57.296875 C 80.101562 55.796875 77.699219 54.898438 75 54.296875 L 75 48 Z M 72 60 C 78.601562 60 84 65.398438 84 72 C 84 78.601562 78.601562 84 72 84 C 65.398438 84 60 78.601562 60 72 C 60 65.398438 65.398438 60 72 60 Z M 72 66 C 68.699219 66 66 68.699219 66 72 C 66 75.300781 68.699219 78 72 78 C 75.300781 78 78 75.300781 78 72 C 78 68.699219 75.300781 66 72 66 Z M 72 66 "/>
</g>
</svg>
