<svg fill="#000000" xmlns="http://www.w3.org/2000/svg"  viewBox="0 0 50 50" width="50px" height="50px"><path d="M 6.8125 6 C 6.335938 6.089844 5.992188 6.511719 6 7 L 6 21 L 3 21 C 1.355469 21 0 22.355469 0 24 L 0 47 C 0 48.644531 1.355469 50 3 50 L 47 50 C 48.644531 50 50 48.644531 50 47 L 50 24 C 50 22.355469 48.644531 21 47 21 L 44 21 L 44 7 C 44 6.449219 43.550781 6 43 6 L 7 6 C 6.96875 6 6.9375 6 6.90625 6 C 6.875 6 6.84375 6 6.8125 6 Z M 8 8 L 42 8 L 42 21 L 8 21 Z M 21.5 11 C 20.132813 11 19 12.132813 19 13.5 C 19 14.867188 20.132813 16 21.5 16 L 28.5 16 C 29.867188 16 31 14.867188 31 13.5 C 31 12.132813 29.867188 11 28.5 11 Z M 21.5 13 L 28.5 13 C 28.785156 13 29 13.214844 29 13.5 C 29 13.785156 28.785156 14 28.5 14 L 21.5 14 C 21.214844 14 21 13.785156 21 13.5 C 21 13.214844 21.214844 13 21.5 13 Z M 3 23 L 47 23 C 47.566406 23 48 23.433594 48 24 L 48 47 C 48 47.566406 47.566406 48 47 48 L 3 48 C 2.433594 48 2 47.566406 2 47 L 2 24 C 2 23.433594 2.433594 23 3 23 Z M 6 25 L 6 43 C 6 43.550781 6.449219 44 7 44 L 43 44 C 43.550781 44 44 43.550781 44 43 L 44 25 L 42 25 L 42 42 L 8 42 L 8 25 Z M 25 25 L 25 30 L 30 30 L 30 25 Z M 34 25 L 34 30 L 39 30 L 39 25 Z M 31 26 L 31 28 L 33 28 L 33 26 Z M 27 27 L 28 27 L 28 28 L 27 28 Z M 36 27 L 37 27 L 37 28 L 36 28 Z M 31 29 L 31 31 L 26 31 L 26 33 L 33 33 L 33 29 Z M 33 33 L 33 35 L 32 35 L 32 39 L 34 39 L 34 35 L 35 35 L 35 33 Z M 35 33 L 37 33 L 37 31 L 35 31 Z M 37 33 L 37 36 L 36 36 L 36 38 L 39 38 L 39 33 Z M 25 34 L 25 39 L 30 39 L 30 34 Z M 27 36 L 28 36 L 28 37 L 27 37 Z"/></svg>