<svg width="100" height="100" viewBox="0 0 100 100" fill="none" xmlns="http://www.w3.org/2000/svg">
<path d="M23.3333 13.3334C21.4933 13.3334 20 14.8267 20 16.6667V23.3334H80V16.6667C80 14.8267 78.5066 13.3334 76.6666 13.3334H23.3333ZM13.3333 30C9.64996 30 6.66663 32.9834 6.66663 36.6667V66.6667C6.66663 70.35 9.64996 73.3334 13.3333 73.3334H20V90H80V73.3334H86.6666C90.35 73.3334 93.3333 70.35 93.3333 66.6667V36.6667C93.3333 32.9834 90.35 30 86.6666 30H13.3333ZM26.6666 50H73.3333V83.3334H26.6666V50Z" fill="black"/>
</svg>
