<svg fill="#000000" xmlns="http://www.w3.org/2000/svg"  viewBox="0 0 100 100" width="100px" height="100px"><path d="M 49 24 C 40.325381 24 33.282931 30.944503 33.044922 39.5625 C 31.543944 38.658058 29.877833 38 28 38 C 22.488666 38 18 42.488666 18 48 C 10.27961 48 4 54.27961 4 62 C 4 69.72039 10.27961 76 18 76 L 82 76 C 89.72039 76 96 69.72039 96 62 C 96 55.908697 92.040133 50.827036 86.59375 48.908203 C 86.799976 47.963392 87 47.012701 87 46 C 87 38.27961 80.72039 32 73 32 C 69.598511 32 66.519849 33.271283 64.09375 35.292969 C 62.055583 28.796258 56.157398 24 49 24 z M 49 26 C 55.763916 26 61.388709 30.784302 62.707031 37.144531 A 1.0001 1.0001 0 0 0 64.402344 37.638672 C 66.58481 35.395222 69.620969 34 73 34 C 79.63961 34 85 39.36039 85 46 C 85 47.11409 84.837644 48.191002 84.548828 49.224609 A 1.0001 1.0001 0 0 0 84.542969 49.255859 C 83.719403 49.092121 82.870348 49 82 49 C 79.075837 49 76.371466 49.968084 74.199219 51.599609 A 0.50005 0.50005 0 1 0 74.800781 52.398438 C 76.806534 50.891962 79.296163 50 82 50 C 83.090143 50 84.141836 50.149656 85.144531 50.421875 A 1.0001 1.0001 0 0 0 85.240234 50.455078 C 90.289595 51.870597 94 56.488253 94 62 C 94 68.63961 88.63961 74 82 74 L 18 74 C 11.36039 74 6 68.63961 6 62 C 6 55.36039 11.36039 50 18 50 L 19.058594 50 A 1.0001 1.0001 0 0 0 20.052734 48.888672 C 20.019189 48.590394 20 48.294607 20 48 C 20 43.569334 23.569334 40 28 40 C 30.085239 40 31.968049 40.79927 33.394531 42.105469 A 1.0001 1.0001 0 0 0 35.064453 41.277344 C 35.025227 40.845855 35 40.421596 35 40 C 35 32.25648 41.25648 26 49 26 z M 50 43 C 43.384534 43 38 48.384534 38 55 C 38 55.372608 38.020464 55.735915 38.052734 56.089844 A 1.0001 1.0001 0 0 0 39.853516 56.59375 L 42.804688 52.59375 A 1.0001 1.0001 0 1 0 41.195312 51.40625 L 40.546875 52.285156 C 41.746438 48.1073 45.42949 45 50 45 C 53.515959 45 56.587335 46.810542 58.373047 49.546875 A 1.0001 1.0001 0 1 0 60.046875 48.453125 C 57.906587 45.173458 54.204041 43 50 43 z M 72.855469 52.994141 A 0.50005 0.50005 0 0 0 72.46875 53.160156 C 72.161932 53.490895 71.871736 53.837768 71.599609 54.199219 A 0.50005 0.50005 0 1 0 72.398438 54.800781 C 72.650311 54.466232 72.917989 54.145105 73.201172 53.839844 A 0.50005 0.50005 0 0 0 72.855469 52.994141 z M 31 53 C 28.229897 53 25.957278 54.914078 25.271484 57.472656 C 24.550135 57.220636 23.807286 57 23 57 C 19.139805 57 16 60.139805 16 64 C 16 64.179905 16.007404 64.359736 16.021484 64.539062 A 0.50005 0.50005 0 1 0 17.017578 64.460938 C 17.005711 64.31026 17 64.156095 17 64 C 17 60.680195 19.680195 58 23 58 C 23.850786 58 24.656791 58.179189 25.390625 58.498047 A 0.50005 0.50005 0 0 0 26.082031 58.125 C 26.495603 55.781732 28.532294 54 31 54 C 32.215899 54 33.326243 54.432628 34.193359 55.152344 A 0.50005 0.50005 0 1 0 34.832031 54.382812 C 33.793148 53.52053 32.454101 53 31 53 z M 60.931641 53 A 1.0001 1.0001 0 0 0 60.146484 53.40625 L 57.195312 57.40625 A 1.0001 1.0001 0 1 0 58.804688 58.59375 L 59.453125 57.714844 C 58.253566 61.8927 54.57051 65 50 65 C 46.484041 65 43.412665 63.189458 41.626953 60.453125 A 1.0001 1.0001 0 1 0 39.953125 61.546875 C 42.093413 64.826542 45.795959 67 50 67 C 56.615466 67 62 61.615466 62 55 C 62 54.627392 61.979536 54.264085 61.947266 53.910156 A 1.0001 1.0001 0 0 0 60.931641 53 z"/></svg>