<?xml version="1.0" encoding="UTF-8"?>
<svg xmlns="http://www.w3.org/2000/svg" xmlns:xlink="http://www.w3.org/1999/xlink" viewBox="0 0 64 64" width="64px" height="64px">
<g id="surface4918839">
<path style=" stroke:none;fill-rule:nonzero;fill:rgb(80.000001%,80.000001%,80.000001%);fill-opacity:1;" d="M 16.75 5.5 C 13.148438 5.5 10.25 8.398438 10.25 12 L 10.25 52 C 10.25 55.601562 13.148438 58.5 16.75 58.5 L 47.25 58.5 C 50.851562 58.5 53.75 55.601562 53.75 52 L 53.75 12 C 53.75 8.398438 50.851562 5.5 47.25 5.5 Z M 16.75 8.5 L 47.25 8.5 C 49.199219 8.5 50.75 10.050781 50.75 12 L 50.75 52 C 50.75 53.949219 49.199219 55.5 47.25 55.5 L 16.75 55.5 C 14.800781 55.5 13.25 53.949219 13.25 52 L 13.25 12 C 13.25 10.050781 14.800781 8.5 16.75 8.5 Z M 20.25 16.5 C 19.398438 16.5 18.75 17.148438 18.75 18 C 18.75 18.851562 19.398438 19.5 20.25 19.5 L 42.75 19.5 C 43.601562 19.5 44.25 18.851562 44.25 18 C 44.25 17.148438 43.601562 16.5 42.75 16.5 Z M 20.25 24 C 19.398438 24 18.75 24.648438 18.75 25.5 C 18.75 26.351562 19.398438 27 20.25 27 L 42.75 27 C 43.601562 27 44.25 26.351562 44.25 25.5 C 44.25 24.648438 43.601562 24 42.75 24 Z M 20.25 31.5 C 19.398438 31.5 18.75 32.148438 18.75 33 C 18.75 33.851562 19.398438 34.5 20.25 34.5 L 30.5 34.5 C 31.351562 34.5 32 33.851562 32 33 C 32 32.148438 31.351562 31.5 30.5 31.5 Z M 40.5 46.539062 C 40.113281 46.539062 39.726562 46.675781 39.449219 46.949219 C 39.148438 47.199219 39 47.601562 39 48 C 39 48.398438 39.148438 48.800781 39.449219 49.050781 C 39.75 49.351562 40.101562 49.5 40.5 49.5 C 40.898438 49.5 41.300781 49.351562 41.550781 49.050781 C 41.851562 48.75 42 48.398438 42 48 C 42 47.601562 41.851562 47.199219 41.550781 46.949219 C 41.273438 46.675781 40.886719 46.539062 40.5 46.539062 Z M 40.5 46.539062 "/>
</g>
</svg>
