<svg width="203" height="54" viewBox="0 0 203 54" fill="none" xmlns="http://www.w3.org/2000/svg">
<path d="M11.16 40.44C9.408 40.44 7.824 40.14 6.408 39.54C5.016 38.94 3.912 38.076 3.096 36.948C2.28 35.82 1.86 34.488 1.836 32.952H7.236C7.308 33.984 7.668 34.8 8.316 35.4C8.988 36 9.9 36.3 11.052 36.3C12.228 36.3 13.152 36.024 13.824 35.472C14.496 34.896 14.832 34.152 14.832 33.24C14.832 32.496 14.604 31.884 14.148 31.404C13.692 30.924 13.116 30.552 12.42 30.288C11.748 30 10.812 29.688 9.612 29.352C7.98 28.872 6.648 28.404 5.616 27.948C4.608 27.468 3.732 26.76 2.988 25.824C2.268 24.864 1.908 23.592 1.908 22.008C1.908 20.52 2.28 19.224 3.024 18.12C3.768 17.016 4.812 16.176 6.156 15.6C7.5 15 9.036 14.7 10.764 14.7C13.356 14.7 15.456 15.336 17.064 16.608C18.696 17.856 19.596 19.608 19.764 21.864H14.22C14.172 21 13.8 20.292 13.104 19.74C12.432 19.164 11.532 18.876 10.404 18.876C9.42 18.876 8.628 19.128 8.028 19.632C7.452 20.136 7.164 20.868 7.164 21.828C7.164 22.5 7.38 23.064 7.812 23.52C8.268 23.952 8.82 24.312 9.468 24.6C10.14 24.864 11.076 25.176 12.276 25.536C13.908 26.016 15.24 26.496 16.272 26.976C17.304 27.456 18.192 28.176 18.936 29.136C19.68 30.096 20.052 31.356 20.052 32.916C20.052 34.26 19.704 35.508 19.008 36.66C18.312 37.812 17.292 38.736 15.948 39.432C14.604 40.104 13.008 40.44 11.16 40.44ZM49.0095 19.956C51.4575 19.956 53.4255 20.712 54.9135 22.224C56.4255 23.712 57.1815 25.8 57.1815 28.488V40.188H52.1415V29.172C52.1415 27.612 51.7455 26.424 50.9535 25.608C50.1615 24.768 49.0815 24.348 47.7135 24.348C46.3455 24.348 45.2535 24.768 44.4375 25.608C43.6455 26.424 43.2495 27.612 43.2495 29.172V40.188H38.2095V29.172C38.2095 27.612 37.8135 26.424 37.0215 25.608C36.2295 24.768 35.1495 24.348 33.7815 24.348C32.3895 24.348 31.2855 24.768 30.4695 25.608C29.6775 26.424 29.2815 27.612 29.2815 29.172V40.188H24.2415V20.244H29.2815V22.656C29.9295 21.816 30.7575 21.156 31.7655 20.676C32.7975 20.196 33.9255 19.956 35.1495 19.956C36.7095 19.956 38.1015 20.292 39.3255 20.964C40.5495 21.612 41.4975 22.548 42.1695 23.772C42.8175 22.62 43.7535 21.696 44.9775 21C46.2255 20.304 47.5695 19.956 49.0095 19.956ZM60.4882 30.144C60.4882 28.128 60.8842 26.34 61.6762 24.78C62.4922 23.22 63.5842 22.02 64.9522 21.18C66.3442 20.34 67.8922 19.92 69.5962 19.92C71.0842 19.92 72.3802 20.22 73.4842 20.82C74.6122 21.42 75.5122 22.176 76.1842 23.088V20.244H81.2602V40.188H76.1842V37.272C75.5362 38.208 74.6362 38.988 73.4842 39.612C72.3562 40.212 71.0482 40.512 69.5602 40.512C67.8802 40.512 66.3442 40.08 64.9522 39.216C63.5842 38.352 62.4922 37.14 61.6762 35.58C60.8842 33.996 60.4882 32.184 60.4882 30.144ZM76.1842 30.216C76.1842 28.992 75.9442 27.948 75.4642 27.084C74.9842 26.196 74.3362 25.524 73.5202 25.068C72.7042 24.588 71.8282 24.348 70.8922 24.348C69.9562 24.348 69.0922 24.576 68.3002 25.032C67.5082 25.488 66.8602 26.16 66.3562 27.048C65.8762 27.912 65.6362 28.944 65.6362 30.144C65.6362 31.344 65.8762 32.4 66.3562 33.312C66.8602 34.2 67.5082 34.884 68.3002 35.364C69.1162 35.844 69.9802 36.084 70.8922 36.084C71.8282 36.084 72.7042 35.856 73.5202 35.4C74.3362 34.92 74.9842 34.248 75.4642 33.384C75.9442 32.496 76.1842 31.44 76.1842 30.216ZM91.0426 23.34C91.6906 22.284 92.5306 21.456 93.5626 20.856C94.6186 20.256 95.8186 19.956 97.1626 19.956V25.248H95.8306C94.2466 25.248 93.0466 25.62 92.2306 26.364C91.4386 27.108 91.0426 28.404 91.0426 30.252V40.188H86.0026V20.244H91.0426V23.34ZM106.245 24.384V34.032C106.245 34.704 106.401 35.196 106.713 35.508C107.049 35.796 107.601 35.94 108.369 35.94H110.709V40.188H107.541C103.293 40.188 101.169 38.124 101.169 33.996V24.384H98.7933V20.244H101.169V15.312H106.245V20.244H110.709V24.384H106.245Z" fill="black"/>
<path d="M138.029 19.978C138.029 21.8127 137.599 23.4897 136.739 25.009C135.908 26.4997 134.632 27.7037 132.912 28.621C131.221 29.5097 129.143 29.954 126.677 29.954H122.506V40.188H114.078V9.87299H126.677C129.114 9.87299 131.178 10.303 132.869 11.163C134.589 12.023 135.879 13.2127 136.739 14.732C137.599 16.2513 138.029 18 138.029 19.978ZM125.86 23.246C128.24 23.246 129.429 22.1567 129.429 19.978C129.429 17.7707 128.24 16.667 125.86 16.667H122.506V23.246H125.86ZM155.734 40.489C152.896 40.489 150.288 39.8297 147.908 38.511C145.529 37.1637 143.637 35.3147 142.232 32.964C140.856 30.5847 140.168 27.9043 140.168 24.923C140.168 21.9417 140.856 19.2757 142.232 16.925C143.637 14.5457 145.529 12.6967 147.908 11.378C150.288 10.0593 152.896 9.39999 155.734 9.39999C158.601 9.39999 161.21 10.0593 163.56 11.378C165.94 12.6967 167.817 14.5457 169.193 16.925C170.569 19.2757 171.257 21.9417 171.257 24.923C171.257 27.9043 170.569 30.5847 169.193 32.964C167.817 35.3147 165.94 37.1637 163.56 38.511C161.181 39.8297 158.572 40.489 155.734 40.489ZM155.734 32.663C157.884 32.663 159.576 31.9607 160.808 30.556C162.07 29.1513 162.7 27.2737 162.7 24.923C162.7 22.515 162.07 20.623 160.808 19.247C159.576 17.8423 157.884 17.14 155.734 17.14C153.556 17.14 151.85 17.8423 150.617 19.247C149.385 20.623 148.768 22.515 148.768 24.923C148.768 27.3023 149.385 29.1943 150.617 30.599C151.85 31.975 153.556 32.663 155.734 32.663ZM186.269 40.489C182.743 40.489 179.848 39.6577 177.583 37.995C175.318 36.3037 174.1 33.8957 173.928 30.771H182.915C183.001 31.8317 183.316 32.6057 183.861 33.093C184.406 33.5803 185.108 33.824 185.968 33.824C186.742 33.824 187.373 33.6377 187.86 33.265C188.376 32.8637 188.634 32.319 188.634 31.631C188.634 30.7423 188.218 30.0543 187.387 29.567C186.556 29.0797 185.208 28.535 183.345 27.933C181.367 27.2737 179.762 26.643 178.529 26.041C177.325 25.4103 176.264 24.5073 175.347 23.332C174.458 22.128 174.014 20.5657 174.014 18.645C174.014 16.6957 174.501 15.033 175.476 13.657C176.451 12.2523 177.798 11.1917 179.518 10.475C181.238 9.75832 183.187 9.39999 185.366 9.39999C188.892 9.39999 191.701 10.2313 193.794 11.894C195.915 13.528 197.048 15.8357 197.191 18.817H188.032C188.003 17.8997 187.717 17.2117 187.172 16.753C186.656 16.2943 185.982 16.065 185.151 16.065C184.52 16.065 184.004 16.2513 183.603 16.624C183.202 16.9967 183.001 17.527 183.001 18.215C183.001 18.7883 183.216 19.29 183.646 19.72C184.105 20.1213 184.664 20.4797 185.323 20.795C185.982 21.0817 186.957 21.4543 188.247 21.913C190.168 22.5723 191.744 23.2317 192.977 23.891C194.238 24.5217 195.313 25.4247 196.202 26.6C197.119 27.7467 197.578 29.2087 197.578 30.986C197.578 32.792 197.119 34.4117 196.202 35.845C195.313 37.2783 194.009 38.4107 192.289 39.242C190.598 40.0733 188.591 40.489 186.269 40.489Z" fill="#FF6B35"/>
</svg>
