<?xml version="1.0" encoding="UTF-8"?>
<svg xmlns="http://www.w3.org/2000/svg" xmlns:xlink="http://www.w3.org/1999/xlink" viewBox="0 0 64 64" width="64px" height="64px">
<g id="surface4918801">
<path style=" stroke:none;fill-rule:nonzero;fill:rgb(80.000001%,80.000001%,80.000001%);fill-opacity:1;" d="M 49.5 0.402344 C 41.898438 0.402344 35.75 6.5 35.5 14.351562 C 35.300781 21.597656 42.25 31.152344 46.402344 36.152344 C 47.152344 37.050781 48.300781 37.597656 49.5 37.597656 C 50.699219 37.597656 51.800781 37.050781 52.601562 36.152344 C 56.75 31.101562 63.75 21.597656 63.5 14.351562 C 63.25 6.5 57.101562 0.402344 49.5 0.402344 Z M 49.5 9.402344 C 52.25 9.402344 54.5 11.648438 54.5 14.402344 C 54.5 17.152344 52.25 19.402344 49.5 19.402344 C 46.75 19.402344 44.5 17.152344 44.5 14.402344 C 44.5 11.648438 46.75 9.402344 49.5 9.402344 Z M 30.597656 34.5 C 28.847656 34.5 27.351562 35.449219 26.550781 37 C 25.800781 38.550781 25.949219 40.351562 27 41.75 L 39.550781 58.101562 C 39.898438 58.550781 39.949219 59.148438 39.699219 59.699219 C 39.449219 60.25 39 60.5 38.402344 60.5 L 18 60.5 C 17.148438 60.5 16.5 61.148438 16.5 62 C 16.5 62.851562 17.148438 63.5 18 63.5 L 38.402344 63.5 C 40.152344 63.5 41.648438 62.550781 42.449219 61 C 43.199219 59.449219 43.050781 57.648438 42 56.25 L 29.402344 39.902344 C 29.050781 39.449219 29 38.851562 29.25 38.300781 C 29.5 37.75 30 37.5 30.601562 37.5 L 39.5 37.5 C 40.351562 37.5 41 36.851562 41 36 C 41 35.148438 40.351562 34.5 39.5 34.5 Z M 9.5 39.949219 C 4.601562 39.949219 0.648438 43.902344 0.5 48.902344 C 0.351562 53.449219 4.648438 59.300781 7.199219 62.402344 C 7.75 63.101562 8.601562 63.5 9.5 63.5 C 10.398438 63.5 11.25 63.101562 11.800781 62.402344 C 14.351562 59.300781 18.648438 53.449219 18.5 48.902344 C 18.351562 43.902344 14.398438 39.949219 9.5 39.949219 Z M 9.5 45.949219 C 11.148438 45.949219 12.5 47.300781 12.5 48.949219 C 12.5 50.601562 11.148438 51.949219 9.5 51.949219 C 7.851562 51.949219 6.5 50.601562 6.5 48.949219 C 6.5 47.300781 7.851562 45.949219 9.5 45.949219 Z M 9.5 45.949219 "/>
</g>
</svg>
