<svg width="100" height="100" viewBox="0 0 100 100" fill="none" xmlns="http://www.w3.org/2000/svg">
<path d="M23.3332 6.66659C22.8915 6.66035 22.453 6.74195 22.0431 6.90666C21.6332 7.07138 21.2601 7.31591 20.9456 7.62606C20.631 7.93621 20.3812 8.30578 20.2107 8.71331C20.0402 9.12083 19.9524 9.55818 19.9524 9.99993C19.9524 10.4417 20.0402 10.879 20.2107 11.2865C20.3812 11.6941 20.631 12.0636 20.9456 12.3738C21.2601 12.6839 21.6332 12.9285 22.0431 13.0932C22.453 13.2579 22.8915 13.3395 23.3332 13.3333H29.9999C31.8399 13.3333 33.3332 14.8233 33.3332 16.6666C33.3332 18.5099 31.8399 19.9999 29.9999 19.9999H26.6666H16.6666C16.2249 19.9937 15.7863 20.0753 15.3764 20.24C14.9665 20.4047 14.5935 20.6492 14.2789 20.9594C13.9643 21.2695 13.7145 21.6391 13.5441 22.0466C13.3736 22.4542 13.2858 22.8915 13.2858 23.3333C13.2858 23.775 13.3736 24.2124 13.5441 24.6199C13.7145 25.0274 13.9643 25.397 14.2789 25.7071C14.5935 26.0173 14.9665 26.2618 15.3764 26.4265C15.7863 26.5912 16.2249 26.6728 16.6666 26.6666H17.3762C17.3536 26.7108 17.3271 26.7525 17.3046 26.7968C18.8279 27.1035 19.9999 28.3833 19.9999 29.9999C19.9999 31.8433 18.5066 33.3333 16.6666 33.3333H6.66657C6.22487 33.327 5.78633 33.4086 5.37643 33.5733C4.96654 33.738 4.59347 33.9826 4.2789 34.2927C3.96434 34.6029 3.71455 34.9724 3.54406 35.38C3.37356 35.7875 3.28577 36.2248 3.28577 36.6666C3.28577 37.1083 3.37356 37.5457 3.54406 37.9532C3.71455 38.3607 3.96434 38.7303 4.2789 39.0405C4.59347 39.3506 4.96654 39.5951 5.37643 39.7599C5.78633 39.9246 6.22487 40.0062 6.66657 39.9999H16.6666C18.5066 39.9999 19.9999 41.4899 19.9999 43.3333C19.9999 45.1766 18.5066 46.6666 16.6666 46.6666H13.3332C12.8915 46.6603 12.453 46.7419 12.0431 46.9067C11.6332 47.0714 11.2601 47.3159 10.9456 47.6261C10.631 47.9362 10.3812 48.3058 10.2107 48.7133C10.0402 49.1208 9.95243 49.5582 9.95243 49.9999C9.95243 50.4417 10.0402 50.879 10.2107 51.2865C10.3812 51.6941 10.631 52.0636 10.9456 52.3738C11.2601 52.6839 11.6332 52.9285 12.0431 53.0932C12.453 53.2579 12.8915 53.3395 13.3332 53.3333H19.9999C21.8399 53.3333 23.3332 54.8233 23.3332 56.6666C23.3332 58.5099 21.8399 59.9999 19.9999 59.9999H13.3332C12.8915 59.9937 12.453 60.0753 12.0431 60.24C11.6332 60.4047 11.2601 60.6492 10.9456 60.9594C10.631 61.2695 10.3812 61.6391 10.2107 62.0466C10.0402 62.4542 9.95243 62.8915 9.95243 63.3333C9.95243 63.775 10.0402 64.2124 10.2107 64.6199C10.3812 65.0274 10.631 65.397 10.9456 65.7071C11.2601 66.0173 11.6332 66.2618 12.0431 66.4265C12.453 66.5912 12.8915 66.6728 13.3332 66.6666H26.6666H29.9999C31.8399 66.6666 33.3332 68.1566 33.3332 69.9999C33.3332 71.8433 31.8399 73.3333 29.9999 73.3333H28.6978H26.6666C26.2249 73.327 25.7863 73.4086 25.3764 73.5733C24.9665 73.738 24.5935 73.9826 24.2789 74.2927C23.9643 74.6029 23.7145 74.9724 23.5441 75.38C23.3736 75.7875 23.2858 76.2248 23.2858 76.6666C23.2858 77.1083 23.3736 77.5457 23.5441 77.9532C23.7145 78.3607 23.9643 78.7303 24.2789 79.0405C24.5935 79.3506 24.9665 79.5951 25.3764 79.7599C25.7863 79.9246 26.2249 80.0062 26.6666 79.9999H37.7213C38.6177 80.5957 39.801 81.3546 40.1627 81.6796C43.2127 84.4229 45.728 90.5692 46.7447 94.0559C47.238 95.7492 48.6266 96.6039 49.9999 96.6405C51.3766 96.6005 52.7618 95.7459 53.2551 94.0559C54.2718 90.5692 56.7871 84.4263 59.8371 81.6796C62.8238 78.9929 86.6666 67.4466 86.6666 43.3333C86.6666 23.1998 70.4342 6.8735 50.345 6.68612C50.2304 6.67365 50.1152 6.66713 49.9999 6.66659H23.3332ZM49.9999 33.3333C55.5232 33.3333 59.9999 37.8099 59.9999 43.3333C59.9999 48.8566 55.5232 53.3333 49.9999 53.3333C44.4766 53.3333 39.9999 48.8566 39.9999 43.3333C39.9999 37.8099 44.4766 33.3333 49.9999 33.3333Z" fill="black"/>
</svg>
