<svg width="100" height="100" viewBox="0 0 100 100" fill="none" xmlns="http://www.w3.org/2000/svg">
<path d="M90 20H28.5066C25.21 20 22.13 21.62 20.2666 24.3367L3.91996 48.1133C3.13996 49.25 3.13996 50.7533 3.91996 51.89L20.2666 75.6667C22.13 78.38 25.21 80 28.5066 80H90C93.6766 80 96.6666 77.01 96.6666 73.3333V26.6667C96.6666 22.99 93.6766 20 90 20ZM72.3566 60.9767C73.66 62.28 73.66 64.3867 72.3566 65.69C71.7066 66.34 70.8533 66.6667 70 66.6667C69.1466 66.6667 68.2933 66.34 67.6433 65.69L56.6666 54.7133L45.69 65.69C45.04 66.34 44.1866 66.6667 43.3333 66.6667C42.48 66.6667 41.6266 66.34 40.9766 65.69C39.6733 64.3867 39.6733 62.28 40.9766 60.9767L51.9533 50L40.9766 39.0233C39.6733 37.72 39.6733 35.6133 40.9766 34.31C42.28 33.0067 44.3866 33.0067 45.69 34.31L56.6666 45.2867L67.6433 34.31C68.9466 33.0067 71.0533 33.0067 72.3566 34.31C73.66 35.6133 73.66 37.72 72.3566 39.0233L61.38 50L72.3566 60.9767Z" fill="black"/>
</svg>
