<?xml version="1.0" encoding="UTF-8"?>
<svg xmlns="http://www.w3.org/2000/svg" xmlns:xlink="http://www.w3.org/1999/xlink" viewBox="0 0 96 96" width="96px" height="96px">
<defs>
<linearGradient id="linear0" gradientUnits="userSpaceOnUse" x1="113" y1="172.639282" x2="113" y2="198.548065" gradientTransform="matrix(0.424779,0,0,0.424779,0,0)">
<stop offset="0" style="stop-color:rgb(100%,100%,100%);stop-opacity:1;"/>
<stop offset="1" style="stop-color:rgb(72.156864%,72.156864%,72.156864%);stop-opacity:1;"/>
</linearGradient>
<linearGradient id="linear1" gradientUnits="userSpaceOnUse" x1="68.859383" y1="31.78125" x2="68.859383" y2="193.657288" gradientTransform="matrix(0.424779,0,0,0.424779,0,0)">
<stop offset="0" style="stop-color:rgb(90.196079%,90.196079%,90.196079%);stop-opacity:1;"/>
<stop offset="1" style="stop-color:rgb(50.196081%,50.196081%,50.196081%);stop-opacity:1;"/>
</linearGradient>
<linearGradient id="linear2" gradientUnits="userSpaceOnUse" x1="176.5625" y1="31.78125" x2="176.5625" y2="193.657288" gradientTransform="matrix(0.424779,0,0,0.424779,0,0)">
<stop offset="0" style="stop-color:rgb(90.196079%,90.196079%,90.196079%);stop-opacity:1;"/>
<stop offset="1" style="stop-color:rgb(50.196081%,50.196081%,50.196081%);stop-opacity:1;"/>
</linearGradient>
<linearGradient id="linear3" gradientUnits="userSpaceOnUse" x1="148.3125" y1="31.78125" x2="148.3125" y2="193.657288" gradientTransform="matrix(0.424779,0,0,0.424779,0,0)">
<stop offset="0" style="stop-color:rgb(90.196079%,90.196079%,90.196079%);stop-opacity:1;"/>
<stop offset="1" style="stop-color:rgb(50.196081%,50.196081%,50.196081%);stop-opacity:1;"/>
</linearGradient>
<linearGradient id="linear4" gradientUnits="userSpaceOnUse" x1="84.75" y1="31.78125" x2="84.75" y2="193.657288" gradientTransform="matrix(0.424779,0,0,0.424779,0,0)">
<stop offset="0" style="stop-color:rgb(90.196079%,90.196079%,90.196079%);stop-opacity:1;"/>
<stop offset="1" style="stop-color:rgb(50.196081%,50.196081%,50.196081%);stop-opacity:1;"/>
</linearGradient>
<linearGradient id="linear5" gradientUnits="userSpaceOnUse" x1="176.5625" y1="31.78125" x2="176.5625" y2="193.657288" gradientTransform="matrix(0.424779,0,0,0.424779,0,0)">
<stop offset="0" style="stop-color:rgb(90.196079%,90.196079%,90.196079%);stop-opacity:1;"/>
<stop offset="1" style="stop-color:rgb(50.196081%,50.196081%,50.196081%);stop-opacity:1;"/>
</linearGradient>
<linearGradient id="linear6" gradientUnits="userSpaceOnUse" x1="148.3125" y1="31.78125" x2="148.3125" y2="193.657288" gradientTransform="matrix(0.424779,0,0,0.424779,0,0)">
<stop offset="0" style="stop-color:rgb(90.196079%,90.196079%,90.196079%);stop-opacity:1;"/>
<stop offset="1" style="stop-color:rgb(50.196081%,50.196081%,50.196081%);stop-opacity:1;"/>
</linearGradient>
<linearGradient id="linear7" gradientUnits="userSpaceOnUse" x1="75.921883" y1="31.78125" x2="75.921883" y2="193.657288" gradientTransform="matrix(0.424779,0,0,0.424779,0,0)">
<stop offset="0" style="stop-color:rgb(90.196079%,90.196079%,90.196079%);stop-opacity:1;"/>
<stop offset="1" style="stop-color:rgb(50.196081%,50.196081%,50.196081%);stop-opacity:1;"/>
</linearGradient>
<linearGradient id="linear8" gradientUnits="userSpaceOnUse" x1="176.5625" y1="31.78125" x2="176.5625" y2="193.657288" gradientTransform="matrix(0.424779,0,0,0.424779,0,0)">
<stop offset="0" style="stop-color:rgb(90.196079%,90.196079%,90.196079%);stop-opacity:1;"/>
<stop offset="1" style="stop-color:rgb(50.196081%,50.196081%,50.196081%);stop-opacity:1;"/>
</linearGradient>
<linearGradient id="linear9" gradientUnits="userSpaceOnUse" x1="148.3125" y1="31.78125" x2="148.3125" y2="193.657288" gradientTransform="matrix(0.424779,0,0,0.424779,0,0)">
<stop offset="0" style="stop-color:rgb(90.196079%,90.196079%,90.196079%);stop-opacity:1;"/>
<stop offset="1" style="stop-color:rgb(50.196081%,50.196081%,50.196081%);stop-opacity:1;"/>
</linearGradient>
<linearGradient id="linear10" gradientUnits="userSpaceOnUse" x1="81.21875" y1="31.78125" x2="81.21875" y2="193.657288" gradientTransform="matrix(0.424779,0,0,0.424779,0,0)">
<stop offset="0" style="stop-color:rgb(90.196079%,90.196079%,90.196079%);stop-opacity:1;"/>
<stop offset="1" style="stop-color:rgb(50.196081%,50.196081%,50.196081%);stop-opacity:1;"/>
</linearGradient>
<linearGradient id="linear11" gradientUnits="userSpaceOnUse" x1="176.5625" y1="31.78125" x2="176.5625" y2="193.657288" gradientTransform="matrix(0.424779,0,0,0.424779,0,0)">
<stop offset="0" style="stop-color:rgb(90.196079%,90.196079%,90.196079%);stop-opacity:1;"/>
<stop offset="1" style="stop-color:rgb(50.196081%,50.196081%,50.196081%);stop-opacity:1;"/>
</linearGradient>
<linearGradient id="linear12" gradientUnits="userSpaceOnUse" x1="148.3125" y1="31.78125" x2="148.3125" y2="193.657288" gradientTransform="matrix(0.424779,0,0,0.424779,0,0)">
<stop offset="0" style="stop-color:rgb(90.196079%,90.196079%,90.196079%);stop-opacity:1;"/>
<stop offset="1" style="stop-color:rgb(50.196081%,50.196081%,50.196081%);stop-opacity:1;"/>
</linearGradient>
<linearGradient id="linear13" gradientUnits="userSpaceOnUse" x1="113" y1="31.78125" x2="113" y2="193.657288" gradientTransform="matrix(0.424779,0,0,0.424779,0,0)">
<stop offset="0" style="stop-color:rgb(90.196079%,90.196079%,90.196079%);stop-opacity:1;"/>
<stop offset="1" style="stop-color:rgb(50.196081%,50.196081%,50.196081%);stop-opacity:1;"/>
</linearGradient>
</defs>
<g id="surface4917535">
<path style=" stroke:none;fill-rule:nonzero;fill:url(#linear0);" d="M 9 75 L 87 75 L 87 81 L 9 81 Z M 9 75 "/>
<path style=" stroke:none;fill-rule:nonzero;fill:url(#linear1);" d="M 19.5 39 L 39 39 L 39 42 L 19.5 42 Z M 19.5 39 "/>
<path style=" stroke:none;fill-rule:nonzero;fill:url(#linear2);" d="M 73.5 39 L 76.5 39 L 76.5 42 L 73.5 42 Z M 73.5 39 "/>
<path style=" stroke:none;fill-rule:nonzero;fill:url(#linear3);" d="M 58.5 39 L 67.5 39 L 67.5 42 L 58.5 42 Z M 58.5 39 "/>
<path style=" stroke:none;fill-rule:nonzero;fill:url(#linear4);" d="M 19.5 30 L 52.5 30 L 52.5 33 L 19.5 33 Z M 19.5 30 "/>
<path style=" stroke:none;fill-rule:nonzero;fill:url(#linear5);" d="M 73.5 30 L 76.5 30 L 76.5 33 L 73.5 33 Z M 73.5 30 "/>
<path style=" stroke:none;fill-rule:nonzero;fill:url(#linear6);" d="M 58.5 30 L 67.5 30 L 67.5 33 L 58.5 33 Z M 58.5 30 "/>
<path style=" stroke:none;fill-rule:nonzero;fill:url(#linear7);" d="M 19.5 48 L 45 48 L 45 51 L 19.5 51 Z M 19.5 48 "/>
<path style=" stroke:none;fill-rule:nonzero;fill:url(#linear8);" d="M 73.5 48 L 76.5 48 L 76.5 51 L 73.5 51 Z M 73.5 48 "/>
<path style=" stroke:none;fill-rule:nonzero;fill:url(#linear9);" d="M 58.5 48 L 67.5 48 L 67.5 51 L 58.5 51 Z M 58.5 48 "/>
<path style=" stroke:none;fill-rule:nonzero;fill:url(#linear10);" d="M 19.5 57 L 49.5 57 L 49.5 60 L 19.5 60 Z M 19.5 57 "/>
<path style=" stroke:none;fill-rule:nonzero;fill:url(#linear11);" d="M 73.5 57 L 76.5 57 L 76.5 60 L 73.5 60 Z M 73.5 57 "/>
<path style=" stroke:none;fill-rule:nonzero;fill:url(#linear12);" d="M 58.5 57 L 67.5 57 L 67.5 60 L 58.5 60 Z M 58.5 57 "/>
<path style=" stroke:none;fill-rule:nonzero;fill:url(#linear13);" d="M 84 13.5 L 12 13.5 C 9.519531 13.5 7.5 15.519531 7.5 18 L 7.5 78 C 7.5 80.480469 9.519531 82.5 12 82.5 L 84 82.5 C 86.480469 82.5 88.5 80.480469 88.5 78 L 88.5 18 C 88.5 15.519531 86.480469 13.5 84 13.5 Z M 85.5 78 C 85.5 78.828125 84.828125 79.5 84 79.5 L 12 79.5 C 11.171875 79.5 10.5 78.828125 10.5 78 L 10.5 76.222656 C 10.972656 76.390625 11.472656 76.5 12 76.5 L 84 76.5 C 84.527344 76.5 85.027344 76.390625 85.5 76.222656 Z M 85.5 72 C 85.5 72.828125 84.828125 73.5 84 73.5 L 12 73.5 C 11.171875 73.5 10.5 72.828125 10.5 72 L 10.5 18 C 10.5 17.171875 11.171875 16.5 12 16.5 L 84 16.5 C 84.828125 16.5 85.5 17.171875 85.5 18 Z M 85.5 72 "/>
</g>
</svg>
