<?xml version="1.0" encoding="UTF-8"?>
<svg xmlns="http://www.w3.org/2000/svg" xmlns:xlink="http://www.w3.org/1999/xlink" viewBox="0 0 64 64" width="64px" height="64px">
<defs>
<linearGradient id="linear0" gradientUnits="userSpaceOnUse" x1="113" y1="41.785278" x2="113" y2="103.041878" gradientTransform="matrix(0.283186,0,0,0.283186,0,0)">
<stop offset="0" style="stop-color:rgb(100%,100%,100%);stop-opacity:1;"/>
<stop offset="1" style="stop-color:rgb(72.156864%,72.156864%,72.156864%);stop-opacity:1;"/>
</linearGradient>
<linearGradient id="linear1" gradientUnits="userSpaceOnUse" x1="183.625" y1="41.785278" x2="183.625" y2="103.041878" gradientTransform="matrix(0.283186,0,0,0.283186,0,0)">
<stop offset="0" style="stop-color:rgb(100%,100%,100%);stop-opacity:1;"/>
<stop offset="1" style="stop-color:rgb(72.156864%,72.156864%,72.156864%);stop-opacity:1;"/>
</linearGradient>
<linearGradient id="linear2" gradientUnits="userSpaceOnUse" x1="42.375" y1="41.785278" x2="42.375" y2="103.041878" gradientTransform="matrix(0.283186,0,0,0.283186,0,0)">
<stop offset="0" style="stop-color:rgb(100%,100%,100%);stop-opacity:1;"/>
<stop offset="1" style="stop-color:rgb(72.156864%,72.156864%,72.156864%);stop-opacity:1;"/>
</linearGradient>
<linearGradient id="linear3" gradientUnits="userSpaceOnUse" x1="88.28125" y1="35.3125" x2="88.28125" y2="192.668533" gradientTransform="matrix(0.283186,0,0,0.283186,0,0)">
<stop offset="0" style="stop-color:rgb(90.196079%,90.196079%,90.196079%);stop-opacity:1;"/>
<stop offset="1" style="stop-color:rgb(50.196081%,50.196081%,50.196081%);stop-opacity:1;"/>
</linearGradient>
<linearGradient id="linear4" gradientUnits="userSpaceOnUse" x1="144.78125" y1="35.3125" x2="144.78125" y2="192.668533" gradientTransform="matrix(0.283186,0,0,0.283186,0,0)">
<stop offset="0" style="stop-color:rgb(90.196079%,90.196079%,90.196079%);stop-opacity:1;"/>
<stop offset="1" style="stop-color:rgb(50.196081%,50.196081%,50.196081%);stop-opacity:1;"/>
</linearGradient>
<linearGradient id="linear5" gradientUnits="userSpaceOnUse" x1="113" y1="35.3125" x2="113" y2="192.668533" gradientTransform="matrix(0.283186,0,0,0.283186,0,0)">
<stop offset="0" style="stop-color:rgb(90.196079%,90.196079%,90.196079%);stop-opacity:1;"/>
<stop offset="1" style="stop-color:rgb(50.196081%,50.196081%,50.196081%);stop-opacity:1;"/>
</linearGradient>
</defs>
<g id="surface4918981">
<path style=" stroke:none;fill-rule:nonzero;fill:url(#linear0);" d="M 37 11 L 37 24 C 37 26.761719 34.761719 29 32 29 C 29.238281 29 27 26.761719 27 24 L 27 11 Z M 37 11 "/>
<path style=" stroke:none;fill-rule:nonzero;fill:url(#linear1);" d="M 47 24 C 47 27.089844 49.804688 29.527344 53.007812 28.902344 C 55.382812 28.4375 57 26.203125 57 23.785156 L 57 23.734375 C 57 22.589844 56.753906 21.460938 56.28125 20.421875 L 53.066406 13.34375 C 52.417969 11.917969 50.992188 11 49.425781 11 L 47 11 Z M 47 24 "/>
<path style=" stroke:none;fill-rule:nonzero;fill:url(#linear2);" d="M 17 11 L 14.574219 11 C 13.007812 11 11.582031 11.917969 10.933594 13.34375 L 7.71875 20.421875 C 7.246094 21.460938 7 22.589844 7 23.734375 L 7 23.785156 C 7 26.398438 8.910156 28.730469 11.507812 28.976562 C 14.492188 29.261719 17 26.921875 17 24 Z M 17 11 "/>
<path style=" stroke:none;fill-rule:nonzero;fill:url(#linear3);" d="M 24 44 L 26 44 L 26 48 L 24 48 Z M 24 44 "/>
<path style=" stroke:none;fill-rule:nonzero;fill:url(#linear4);" d="M 34 46 L 48 46 C 49.101562 46 50 45.101562 50 44 L 50 36 C 50 34.898438 49.101562 34 48 34 L 34 34 C 32.898438 34 32 34.898438 32 36 L 32 44 C 32 45.101562 32.898438 46 34 46 Z M 34 36 L 48 36 L 48 44 L 34 44 Z M 34 36 "/>
<path style=" stroke:none;fill-rule:nonzero;fill:url(#linear5);" d="M 54 51 L 54 29.648438 C 56.355469 28.808594 58 26.472656 58 23.734375 C 58 22.4375 57.730469 21.183594 57.191406 20.007812 L 53.976562 12.929688 C 53.167969 11.148438 51.382812 10 49.425781 10 L 14.574219 10 C 12.617188 10 10.832031 11.148438 10.023438 12.929688 L 6.808594 20.007812 C 6.269531 21.183594 6 22.4375 6 23.785156 C 6 26.449219 7.671875 28.785156 10 29.640625 L 10 51 C 10 51.351562 10.070312 51.6875 10.183594 52 L 6 52 L 6 54 L 58 54 L 58 52 L 53.816406 52 C 53.929688 51.6875 54 51.351562 54 51 Z M 28 38 L 20 38 L 20 36 L 28 36 Z M 28 34 L 20 34 C 18.898438 34 18 34.898438 18 36 L 18 48 L 12 48 L 12 29.996094 C 13.488281 29.996094 14.933594 29.441406 16.035156 28.441406 C 16.40625 28.101562 16.726562 27.71875 16.996094 27.304688 C 18.074219 28.925781 19.910156 30 22 30 C 24.085938 30 25.925781 28.929688 27 27.308594 C 28.074219 28.929688 29.914062 30 32 30 C 34.085938 30 35.925781 28.929688 37 27.308594 C 38.074219 28.929688 39.914062 30 42 30 C 44.085938 30 45.925781 28.929688 47 27.308594 C 47.328125 27.796875 47.722656 28.25 48.1875 28.632812 C 49.269531 29.523438 50.613281 29.996094 52 30 L 52 48 L 30 48 L 30 36 C 30 34.898438 29.101562 34 28 34 Z M 52.15625 13.757812 L 55.371094 20.835938 C 55.789062 21.75 56 22.726562 56 23.785156 C 56 25.820312 54.660156 27.558594 52.816406 27.921875 C 51.59375 28.160156 50.398438 27.863281 49.460938 27.089844 C 48.53125 26.324219 48 25.199219 48 24 L 48 12 L 49.425781 12 C 50.597656 12 51.671875 12.691406 52.15625 13.757812 Z M 46 12 L 46 24 C 46 26.207031 44.207031 28 42 28 C 39.792969 28 38 26.207031 38 24 L 38 12 Z M 36 24 C 36 26.207031 34.207031 28 32 28 C 29.792969 28 28 26.207031 28 24 L 28 12 L 36 12 Z M 26 12 L 26 24 C 26 26.207031 24.207031 28 22 28 C 19.792969 28 18 26.207031 18 24 L 18 12 Z M 8 23.734375 C 8 22.726562 8.210938 21.75 8.628906 20.835938 L 11.84375 13.757812 C 12.328125 12.691406 13.402344 12 14.574219 12 L 16 12 L 16 24 C 16 25.125 15.523438 26.203125 14.691406 26.960938 C 13.84375 27.726562 12.75 28.085938 11.601562 27.980469 C 9.582031 27.789062 8 25.945312 8 23.734375 Z M 13 52 C 12.449219 52 12 51.550781 12 51 L 12 50 L 18 50 L 18 52 Z M 20 52 L 20 40 L 28 40 L 28 52 Z M 30 52 L 30 50 L 52 50 L 52 51 C 52 51.550781 51.550781 52 51 52 Z M 30 52 "/>
</g>
</svg>
